<svg version="1.1" viewBox="0.0 0.0 960.0 540.0" fill="none" stroke="none" stroke-linecap="square" stroke-miterlimit="10" xmlns:xlink="http://www.w3.org/1999/xlink" xmlns="http://www.w3.org/2000/svg"><clipPath id="g83392b2f6d_0_58.0"><path d="m0 0l960.0 0l0 540.0l-960.0 0l0 -540.0z" clip-rule="nonzero"/></clipPath><g clip-path="url(#g83392b2f6d_0_58.0)"><path fill="#000000" fill-opacity="0.0" d="m0 0l960.0 0l0 540.0l-960.0 0z" fill-rule="evenodd"/><g filter="url(#shadowFilter-g83392b2f6d_0_58.1)"><use xlink:href="#g83392b2f6d_0_58.1" transform="matrix(1.0 0.0 0.0 1.0 0.0 5.0)"/></g><defs><filter id="shadowFilter-g83392b2f6d_0_58.1" filterUnits="userSpaceOnUse"><feGaussianBlur in="SourceAlpha" stdDeviation="2.0" result="blur"/><feComponentTransfer in="blur" color-interpolation-filters="sRGB"><feFuncR type="linear" slope="0" intercept="0.6"/><feFuncG type="linear" slope="0" intercept="0.6"/><feFuncB type="linear" slope="0" intercept="0.6"/><feFuncA type="linear" slope="0.5" intercept="0"/></feComponentTransfer></filter></defs><g id="g83392b2f6d_0_58.1"><path fill="#666666" d="m378.33072 202.39108l0 0c0 -51.549484 45.51889 -93.33859 101.66928 -93.33859l0 0c56.15039 0 101.66931 41.78911 101.66931 93.33859l0 0c0 51.54947 -45.51892 93.33856 -101.66931 93.33856l0 0c-56.15039 0 -101.66928 -41.789093 -101.66928 -93.33856z" fill-rule="evenodd"/><path stroke="#434343" stroke-width="3.0" stroke-linejoin="round" stroke-linecap="butt" d="m378.33072 202.39108l0 0c0 -51.549484 45.51889 -93.33859 101.66928 -93.33859l0 0c56.15039 0 101.66931 41.78911 101.66931 93.33859l0 0c0 51.54947 -45.51892 93.33856 -101.66931 93.33856l0 0c-56.15039 0 -101.66928 -41.789093 -101.66928 -93.33856z" fill-rule="evenodd"/></g><g filter="url(#shadowFilter-g83392b2f6d_0_58.2)"><use xlink:href="#g83392b2f6d_0_58.2" transform="matrix(1.0 0.0 0.0 1.0 0.0 5.0)"/></g><defs><filter id="shadowFilter-g83392b2f6d_0_58.2" filterUnits="userSpaceOnUse"><feGaussianBlur in="SourceAlpha" stdDeviation="2.0" result="blur"/><feComponentTransfer in="blur" color-interpolation-filters="sRGB"><feFuncR type="linear" slope="0" intercept="0.6"/><feFuncG type="linear" slope="0" intercept="0.6"/><feFuncB type="linear" slope="0" intercept="0.6"/><feFuncA type="linear" slope="0.5" intercept="0"/></feComponentTransfer></filter></defs><g id="g83392b2f6d_0_58.2"><path fill="#666666" d="m378.33072 324.4411l0 0c0 -4.2966003 3.4830627 -7.7796936 7.779663 -7.7796936l187.7792 0c2.0632935 0 4.0421143 0.8196411 5.5010986 2.2786255c1.4589844 1.4589844 2.2786255 3.4377747 2.2786255 5.501068l0 31.117798c0 4.2966003 -3.4830933 7.7796936 -7.779724 7.7796936l-187.7792 0c-4.2966003 0 -7.779663 -3.4830933 -7.779663 -7.7796936z" fill-rule="evenodd"/><path stroke="#434343" stroke-width="3.0" stroke-linejoin="round" stroke-linecap="butt" d="m378.33072 324.4411l0 0c0 -4.2966003 3.4830627 -7.7796936 7.779663 -7.7796936l187.7792 0c2.0632935 0 4.0421143 0.8196411 5.5010986 2.2786255c1.4589844 1.4589844 2.2786255 3.4377747 2.2786255 5.501068l0 31.117798c0 4.2966003 -3.4830933 7.7796936 -7.779724 7.7796936l-187.7792 0c-4.2966003 0 -7.779663 -3.4830933 -7.779663 -7.7796936z" fill-rule="evenodd"/></g><g filter="url(#shadowFilter-g83392b2f6d_0_58.3)"><use xlink:href="#g83392b2f6d_0_58.3" transform="matrix(1.0 0.0 0.0 1.0 0.0 5.0)"/></g><defs><filter id="shadowFilter-g83392b2f6d_0_58.3" filterUnits="userSpaceOnUse"><feGaussianBlur in="SourceAlpha" stdDeviation="2.0" result="blur"/><feComponentTransfer in="blur" color-interpolation-filters="sRGB"><feFuncR type="linear" slope="0" intercept="0.6"/><feFuncG type="linear" slope="0" intercept="0.6"/><feFuncB type="linear" slope="0" intercept="0.6"/><feFuncA type="linear" slope="0.5" intercept="0"/></feComponentTransfer></filter></defs><g id="g83392b2f6d_0_58.3"><path fill="#666666" d="m378.33072 392.05002l0 0c0 -4.2966003 3.4830627 -7.779663 7.779663 -7.779663l187.7792 0c2.0632935 0 4.0421143 0.8196411 5.5010986 2.278595c1.4589844 1.4589844 2.2786255 3.4377747 2.2786255 5.501068l0 31.117798c0 4.2966003 -3.4830933 7.7796936 -7.779724 7.7796936l-187.7792 0c-4.2966003 0 -7.779663 -3.4830933 -7.779663 -7.7796936z" fill-rule="evenodd"/><path stroke="#434343" stroke-width="3.0" stroke-linejoin="round" stroke-linecap="butt" d="m378.33072 392.05002l0 0c0 -4.2966003 3.4830627 -7.779663 7.779663 -7.779663l187.7792 0c2.0632935 0 4.0421143 0.8196411 5.5010986 2.278595c1.4589844 1.4589844 2.2786255 3.4377747 2.2786255 5.501068l0 31.117798c0 4.2966003 -3.4830933 7.7796936 -7.779724 7.7796936l-187.7792 0c-4.2966003 0 -7.779663 -3.4830933 -7.779663 -7.7796936z" fill-rule="evenodd"/></g></g></svg>